<?xml version="1.0" encoding="UTF-8"?>
<svg xmlns="http://www.w3.org/2000/svg" viewBox="0 0 1100 680" font-family="Kanit, Segoe UI, sans-serif">
  <defs>
    <marker id="a1" markerWidth="9" markerHeight="9" refX="8" refY="3" orient="auto"><path d="M0,0 L8,3 L0,6 Z" fill="#38bdf8"/></marker>
    <marker id="a2" markerWidth="9" markerHeight="9" refX="8" refY="3" orient="auto"><path d="M0,0 L8,3 L0,6 Z" fill="#a78bfa"/></marker>
  </defs>
  <rect width="1100" height="680" fill="#0c0c10"/>
  <text x="550" y="32" text-anchor="middle" fill="#93c5fd" font-size="18" font-weight="600">DFD Level 1 — ???????????? P0</text>
  <text x="550" y="54" text-anchor="middle" fill="#64748b" font-size="12">Stock Audit · P1–P6 · D1–D7</text>

  <rect x="420" y="70" width="120" height="44" rx="5" fill="#1e293b" stroke="#94a3b8"/>
  <text x="480" y="98" text-anchor="middle" fill="#e2e8f0" font-size="11">E1 ??????????????</text>
  <rect x="560" y="70" width="120" height="44" rx="5" fill="#1e293b" stroke="#94a3b8"/>
  <text x="620" y="98" text-anchor="middle" fill="#e2e8f0" font-size="11">E2 ?????????</text>
  <rect x="900" y="70" width="120" height="44" rx="5" fill="#1e293b" stroke="#94a3b8"/>
  <text x="960" y="98" text-anchor="middle" fill="#e2e8f0" font-size="11">E3 Excel/ERP</text>

  <g stroke="#c4b5fd" stroke-width="1.8" fill="none">
    <line x1="40" y1="130" x2="40" y2="168"/><line x1="40" y1="130" x2="200" y2="130"/><line x1="200" y1="130" x2="200" y2="168"/><line x1="40" y1="168" x2="200" y2="168"/>
    <text x="120" y="155" text-anchor="middle" fill="#e9d5ff" font-size="11">D1 sku_master_data</text>
    <line x1="40" y1="200" x2="40" y2="238"/><line x1="40" y1="200" x2="200" y2="200"/><line x1="200" y1="200" x2="200" y2="238"/><line x1="40" y1="238" x2="200" y2="238"/>
    <text x="120" y="225" text-anchor="middle" fill="#e9d5ff" font-size="11">D2 count_cycles</text>
    <line x1="40" y1="270" x2="40" y2="308"/><line x1="40" y1="270" x2="200" y2="270"/><line x1="200" y1="270" x2="200" y2="308"/><line x1="40" y1="308" x2="200" y2="308"/>
    <text x="120" y="295" text-anchor="middle" fill="#e9d5ff" font-size="11">D3 book_stock_lines</text>
    <line x1="40" y1="340" x2="40" y2="378"/><line x1="40" y1="340" x2="200" y2="340"/><line x1="200" y1="340" x2="200" y2="378"/><line x1="40" y1="378" x2="200" y2="378"/>
    <text x="120" y="365" text-anchor="middle" fill="#e9d5ff" font-size="11">D4 inventory_counts</text>
    <line x1="880" y1="200" x2="880" y2="238"/><line x1="880" y1="200" x2="1040" y2="200"/><line x1="1040" y1="200" x2="1040" y2="238"/><line x1="880" y1="238" x2="1040" y2="238"/>
    <text x="960" y="225" text-anchor="middle" fill="#e9d5ff" font-size="11">D5 reconciliation_lines</text>
    <line x1="880" y1="270" x2="880" y2="308"/><line x1="880" y1="270" x2="1040" y2="270"/><line x1="1040" y1="270" x2="1040" y2="308"/><line x1="880" y1="308" x2="1040" y2="308"/>
    <text x="960" y="295" text-anchor="middle" fill="#e9d5ff" font-size="11">D6 stock_adjustments</text>
    <line x1="880" y1="340" x2="880" y2="378"/><line x1="880" y1="340" x2="1040" y2="340"/><line x1="1040" y1="340" x2="1040" y2="378"/><line x1="880" y1="378" x2="1040" y2="378"/>
    <text x="960" y="365" text-anchor="middle" fill="#e9d5ff" font-size="11">D7 audit_logs</text>
  </g>

  <circle cx="320" cy="150" r="48" fill="#064e3b" stroke="#34d399" stroke-width="2.5"/>
  <text x="320" y="142" text-anchor="middle" fill="#fff" font-size="13" font-weight="600">P1</text>
  <text x="320" y="162" text-anchor="middle" fill="#bbf7d0" font-size="10">SKU Master</text>
  <text x="320" y="176" text-anchor="middle" fill="#86efac" font-size="9">sku_master.html</text>

  <circle cx="320" cy="280" r="48" fill="#1e3a8a" stroke="#60a5fa" stroke-width="2.5"/>
  <text x="320" y="272" text-anchor="middle" fill="#fff" font-size="13" font-weight="600">P2</text>
  <text x="320" y="292" text-anchor="middle" fill="#bfdbfe" font-size="10">??? + Book</text>
  <text x="320" y="306" text-anchor="middle" fill="#93c5fd" font-size="9">cycle_config.html</text>

  <circle cx="320" cy="410" r="48" fill="#064e3b" stroke="#34d399" stroke-width="2.5"/>
  <text x="320" y="402" text-anchor="middle" fill="#fff" font-size="13" font-weight="600">P3</text>
  <text x="320" y="422" text-anchor="middle" fill="#bbf7d0" font-size="10">???????????</text>
  <text x="320" y="436" text-anchor="middle" fill="#86efac" font-size="9">index / import</text>

  <circle cx="520" cy="360" r="48" fill="#78350f" stroke="#fbbf24" stroke-width="2.5"/>
  <text x="520" y="352" text-anchor="middle" fill="#fff" font-size="13" font-weight="600">P4</text>
  <text x="520" y="372" text-anchor="middle" fill="#fde68a" font-size="10">??????+????</text>
  <text x="520" y="386" text-anchor="middle" fill="#fcd34d" font-size="9">audit / search</text>

  <circle cx="700" cy="240" r="48" fill="#4c1d95" stroke="#a78bfa" stroke-width="2.5"/>
  <text x="700" y="232" text-anchor="middle" fill="#fff" font-size="13" font-weight="600">P5</text>
  <text x="700" y="252" text-anchor="middle" fill="#e9d5ff" font-size="10">Match ???</text>
  <text x="700" y="266" text-anchor="middle" fill="#c4b5fd" font-size="9">reconcile.html</text>

  <circle cx="700" cy="500" r="48" fill="#0c4a6e" stroke="#38bdf8" stroke-width="2.5"/>
  <text x="700" y="492" text-anchor="middle" fill="#fff" font-size="13" font-weight="600">P6</text>
  <text x="700" y="512" text-anchor="middle" fill="#bae6fd" font-size="10">Dashboard</text>
  <text x="700" y="526" text-anchor="middle" fill="#7dd3fc" font-size="9">dashboard.html</text>

  <line x1="200" y1="150" x2="272" y2="150" stroke="#38bdf8" stroke-width="1.5" marker-end="url(#a1)"/>
  <text x="236" y="142" fill="#64748b" font-size="9">Excel SKU</text>
  <line x1="368" y1="165" x2="200" y2="215" stroke="#38bdf8" stroke-width="1.5" marker-end="url(#a1)"/>
  <line x1="368" y1="280" x2="200" y2="280" stroke="#38bdf8" stroke-width="1.5" marker-end="url(#a1)"/>
  <line x1="368" y1="295" x2="200" y2="295" stroke="#38bdf8" stroke-width="1.5" marker-end="url(#a1)"/>
  <line x1="368" y1="410" x2="200" y2="360" stroke="#38bdf8" stroke-width="1.5" marker-end="url(#a1)"/>
  <line x1="480" y1="115" x2="368" y2="400" stroke="#38bdf8" stroke-width="1.5" marker-end="url(#a1)"/>
  <text x="420" y="250" fill="#64748b" font-size="9">?????</text>
  <line x1="472" y1="360" x2="652" y2="260" stroke="#38bdf8" stroke-width="1.5" marker-end="url(#a1)"/>
  <text x="560" y="300" fill="#64748b" font-size="9">???? D4</text>
  <line x1="652" y1="255" x2="880" y2="220" stroke="#a78bfa" stroke-width="1.5" marker-end="url(#a2)"/>
  <line x1="748" y1="255" x2="880" y2="290" stroke="#a78bfa" stroke-width="1.5" marker-end="url(#a2)"/>
  <line x1="700" y1="288" x2="700" y2="452" stroke="#38bdf8" stroke-width="1.5" marker-end="url(#a1)"/>
  <line x1="368" y1="430" x2="652" y2="490" stroke="#38bdf8" stroke-width="1.2" stroke-dasharray="5" marker-end="url(#a1)"/>
  <line x1="900" y1="114" x2="368" y2="270" stroke="#38bdf8" stroke-width="1.2" marker-end="url(#a1)"/>
  <line x1="748" y1="240" x2="900" y2="95" stroke="#38bdf8" stroke-width="1.2" marker-end="url(#a1)"/>
  <text x="820" y="88" fill="#64748b" font-size="9">Export ERP</text>

  <text x="550" y="640" text-anchor="middle" fill="#475569" font-size="11">?????????: P1 ? P2 ? P3 ? P4 ? P5 ? P6 (???????? Flow F0–F7 ????????)</text>
  <text x="550" y="660" text-anchor="middle" fill="#475569" font-size="10">inventory_counts (D4) = ?????????? · Match ?????? counted_qty · ??????? Book/D6</text>
</svg>
